<?xml version="1.0" encoding="utf-8"?>
<!-- Generator: Adobe Illustrator 16.0.3, SVG Export Plug-In . SVG Version: 6.00 Build 0)  -->
<!DOCTYPE svg PUBLIC "-//W3C//DTD SVG 1.1//EN" "http://www.w3.org/Graphics/SVG/1.1/DTD/svg11.dtd">
<svg version="1.1" id="Слой_1" xmlns="http://www.w3.org/2000/svg" xmlns:xlink="http://www.w3.org/1999/xlink" x="0px" y="0px"
	 width="48px" height="48px" viewBox="0 0 48 48" enable-background="new 0 0 48 48" xml:space="preserve">
<rect x="5" y="10" fill="#9ADAEF" width="33" height="33"/>
<path fill="#AED9E8" d="M42.678,8.142l-2.82-2.819c-0.428-0.43-1.125-0.43-1.555,0L36.975,6.65l4.377,4.375l1.326-1.328
	C43.107,9.268,43.107,8.572,42.678,8.142"/>
<rect x="14.867" y="17.09" transform="matrix(0.7071 -0.7071 0.7071 0.7071 -6.1245 25.5825)" fill="#56C3EA" width="25.901" height="6.188"/>
<rect x="36.523" y="6.838" transform="matrix(-0.7069 0.7073 -0.7073 -0.7069 72.0084 -9.9705)" fill="#56C3EA" width="3.094" height="6.189"/>
<polygon fill="#AED9E8" points="16.473,27.152 15,33 20.848,31.527 "/>
<polygon fill="#56C3EA" points="15.744,30.044 15,33 17.956,32.256 "/>
<text transform="matrix(1 0 0 1 12.5 41.875)" fill="#FFFFFF" font-family="'MyriadPro-Regular'" font-size="12">ABC</text>
</svg>
