<svg xmlns="http://www.w3.org/2000/svg" viewBox="0 0 50 50" enable-background="new 0 0 50 50">
    <path fill="#7daddb"  d="M 6 2 L 6 3 L 6 47 L 6 48 L 7 48 L 34 48 C 34.006834 48.005142 34.024403 47.994875 34.03125 48 C 35.700301 49.249268 37.761155 50 40 50 C 45.511003 50 50 45.511003 50 40 C 50 35.915953 47.519577 32.394233 44 30.84375 L 44 3 L 44 2 L 43 2 L 7 2 L 6 2 z M 8 4 L 42 4 L 42 30.21875 C 41.349834 30.08524 40.688875 30 40 30 C 37.761155 30 35.700301 30.750732 34.03125 32 L 20 32 L 20 34 L 32.03125 34 C 30.765672 35.675221 30 37.745081 30 40 C 30 42.254919 30.765672 44.324779 32.03125 46 L 8 46 L 8 4 z M 13 14 L 13 16 L 17 16 L 17 14 L 13 14 z M 20 14 L 20 16 L 37 16 L 37 14 L 20 14 z M 13 20 L 13 22 L 17 22 L 17 20 L 13 20 z M 20 20 L 20 22 L 37 22 L 37 20 L 20 20 z M 13 26 L 13 28 L 17 28 L 17 26 L 13 26 z M 20 26 L 20 28 L 37 28 L 37 26 L 20 26 z M 13 32 L 13 34 L 17 34 L 17 32 L 13 32 z M 40 32 C 44.430123 32 48 35.569877 48 40 C 48 44.430123 44.430123 48 40 48 C 35.569877 48 32 44.430123 32 40 C 32 35.569877 35.569877 32 40 32 z M 39 35 L 39 39 L 35 39 L 35 41 L 39 41 L 39 45 L 41 45 L 41 41 L 45 41 L 45 39 L 41 39 L 41 35 L 39 35 z"></path>
</svg>