<svg xmlns="http://www.w3.org/2000/svg" viewBox="0 0 50 50" enable-background="new 0 0 50 50">
    <path fill="#7daddb" d="M 4 4 L 4 5 L 4 45 L 4 46 L 5 46 L 45 46 L 46 46 L 46 45 L 46 5 L 46 4 L 45 4 L 5 4 L 4 4 z M 6 6 L 10 6 L 10 9 L 6 9 L 6 6 z M 12 6 L 38 6 L 38 44 L 12 44 L 12 6 z M 40 6 L 44 6 L 44 9 L 40 9 L 40 6 z M 6 11 L 10 11 L 10 14 L 6 14 L 6 11 z M 40 11 L 44 11 L 44 14 L 40 14 L 40 11 z M 6 16 L 10 16 L 10 19 L 6 19 L 6 16 z M 40 16 L 44 16 L 44 19 L 40 19 L 40 16 z M 19.8125 17.09375 A 1.0001 1.0001 0 0 0 19 18.09375 L 19 31.90625 A 1.0001 1.0001 0 0 0 20.5 32.78125 L 32.5 25.875 A 1.0001 1.0001 0 0 0 32.5 24.125 L 20.5 17.21875 A 1.0001 1.0001 0 0 0 19.90625 17.09375 A 1.0001 1.0001 0 0 0 19.8125 17.09375 z M 21 19.84375 L 29.96875 25 L 21 30.15625 L 21 19.84375 z M 6 21 L 10 21 L 10 24 L 6 24 L 6 21 z M 40 21 L 44 21 L 44 24 L 40 24 L 40 21 z M 6 26 L 10 26 L 10 29 L 6 29 L 6 26 z M 40 26 L 44 26 L 44 29 L 40 29 L 40 26 z M 6 31 L 10 31 L 10 34 L 6 34 L 6 31 z M 40 31 L 44 31 L 44 34 L 40 34 L 40 31 z M 6 36 L 10 36 L 10 39 L 6 39 L 6 36 z M 40 36 L 44 36 L 44 39 L 40 39 L 40 36 z M 6 41 L 10 41 L 10 44 L 6 44 L 6 41 z M 40 41 L 44 41 L 44 44 L 40 44 L 40 41 z"></path>
</svg>