<?xml version="1.0" encoding="utf-8"?>
<!-- Generator: Adobe Illustrator 16.0.3, SVG Export Plug-In . SVG Version: 6.00 Build 0)  -->
<!DOCTYPE svg PUBLIC "-//W3C//DTD SVG 1.1//EN" "http://www.w3.org/Graphics/SVG/1.1/DTD/svg11.dtd">
<svg version="1.1" id="Слой_1" xmlns="http://www.w3.org/2000/svg" xmlns:xlink="http://www.w3.org/1999/xlink" x="0px" y="0px"
	 width="48px" height="48px" viewBox="0 0 48 48" enable-background="new 0 0 48 48" xml:space="preserve">
<g>
	<polygon fill="#B5E0EA" points="36.359,34.986 32.842,27.141 29,27.986 33.359,34.986 35.359,34.986 	"/>
	<polygon fill="#B5E0EA" points="11.594,34.986 15.143,27.141 19,27.986 14.594,34.986 12.594,34.986 	"/>
	<path fill="#B5E0EA" d="M24,17.987c-2.758,0-5-2.243-5-5c0-2.757,2.242-5,5-5s5,2.243,5,5C29,15.744,26.758,17.987,24,17.987"/>
</g>
<path fill="#56C3EA" d="M26.991,20.487c0,0-0.991-0.5-2.991-0.5s-2.991,0.5-2.991,0.5c-3.466,1.277-4.957,4.714-5.866,6.654
	L19,28.986v13.002l5-0.002l5,0.002V28.986l3.842-1.846C31.934,25.201,30.457,21.765,26.991,20.487z"/>
<path fill="none" stroke="#3E9DB7" stroke-width="2" stroke-linecap="round" d="M16,12.988C16,8.438,19.442,5,23.992,5
	C28.542,5,32,8.438,32,12.988"/>
<path fill="#2B88A0" d="M42,35.986c0-1.104-0.896-2-2-2h-8l-2,2H18l-2-2H8c-1.104,0-2,0.896-2,2v5c0,1.104,0.896,2,2,2h32
	c1.104,0,2-0.896,2-2V35.986z"/>
<g>
	<path fill="#56C3EA" d="M6,35.986h12l-2-2H8C6.896,33.986,6,34.883,6,35.986z"/>
	<path fill="#56C3EA" d="M40,33.986h-8l-2,2h12C42,34.883,41.104,33.986,40,33.986z"/>
	<path fill="#56C3EA" d="M19,14.487c0,0.828-0.672,1.5-1.5,1.5l0,0c-0.828,0-1.5-0.672-1.5-1.5v-2.083c0-0.828,0.672-1.5,1.5-1.5
		l0,0c0.828,0,1.5,0.672,1.5,1.5V14.487z"/>
	<path fill="#56C3EA" d="M32,14.57c0,0.828-0.672,1.5-1.5,1.5l0,0c-0.828,0-1.5-0.672-1.5-1.5v-2.083c0-0.828,0.672-1.5,1.5-1.5l0,0
		c0.828,0,1.5,0.672,1.5,1.5V14.57z"/>
</g>
</svg>
